<svg width="118" height="118" xmlns="http://www.w3.org/2000/svg" xmlns:xlink="http://www.w3.org/1999/xlink" xmlns:svgjs="http://svgjs.com/svgjs">
  <svg overflow="visible">
    <svg x="3" y="3" overflow="visible">
      <rect width="20" height="20" rx="3" ry="3" fill="#f5f9f0"/>
    </svg>
    <svg x="26" y="3" overflow="visible">
      <rect width="20" height="20" rx="3" ry="3" fill="#92c353"/>
    </svg>
    <svg x="49" y="3" overflow="visible">
      <rect width="20" height="20" rx="3" ry="3" fill="#b8d88f"/>
    </svg>
    <svg x="72" y="3" overflow="visible">
      <rect width="20" height="20" rx="3" ry="3" fill="#cbe2ac"/>
    </svg>
    <svg x="95" y="3" overflow="visible">
      <rect width="20" height="20" rx="3" ry="3" fill="#e8f2da"/>
    </svg>
    <svg x="3" y="26" overflow="visible">
      <rect width="20" height="20" rx="3" ry="3" fill="#9cc862"/>
    </svg>
    <svg x="26" y="26" overflow="visible">
      <rect width="20" height="20" rx="3" ry="3" fill="#a1cb6a"/>
    </svg>
    <svg x="49" y="26" overflow="visible">
      <rect width="20" height="20" rx="3" ry="3" fill="#b0d381"/>
    </svg>
    <svg x="72" y="26" overflow="visible">
      <rect width="20" height="20" rx="3" ry="3" fill="#dfedcd"/>
    </svg>
    <svg x="95" y="26" overflow="visible">
      <rect width="20" height="20" rx="3" ry="3" fill="#b5d68a"/>
    </svg>
    <svg x="3" y="49" overflow="visible">
      <rect width="20" height="20" rx="3" ry="3" fill="#9ec965"/>
    </svg>
    <svg x="26" y="49" overflow="visible">
      <rect width="20" height="20" rx="3" ry="3" fill="#e4f0d5"/>
    </svg>
    <svg x="49" y="49" overflow="visible">
      <rect width="20" height="20" rx="3" ry="3" fill="#97c65b"/>
    </svg>
    <svg x="72" y="49" overflow="visible">
      <rect width="20" height="20" rx="3" ry="3" fill="#d1e6b6"/>
    </svg>
    <svg x="95" y="49" overflow="visible">
      <rect width="20" height="20" rx="3" ry="3" fill="#9cc862"/>
    </svg>
    <svg x="3" y="72" overflow="visible">
      <rect width="20" height="20" rx="3" ry="3" fill="#d6e8bf"/>
    </svg>
    <svg x="26" y="72" overflow="visible">
      <rect width="20" height="20" rx="3" ry="3" fill="#f7fbf3"/>
    </svg>
    <svg x="49" y="72" overflow="visible">
      <rect width="20" height="20" rx="3" ry="3" fill="#a5cd71"/>
    </svg>
    <svg x="72" y="72" overflow="visible">
      <rect width="20" height="20" rx="3" ry="3" fill="#f2f7ea"/>
    </svg>
    <svg x="95" y="72" overflow="visible">
      <rect width="20" height="20" rx="3" ry="3" fill="#fafcf8"/>
    </svg>
    <svg x="3" y="95" overflow="visible">
      <rect width="20" height="20" rx="3" ry="3" fill="#9dc963"/>
    </svg>
    <svg x="26" y="95" overflow="visible">
      <rect width="20" height="20" rx="3" ry="3" fill="#99c75e"/>
    </svg>
    <svg x="49" y="95" overflow="visible">
      <rect width="20" height="20" rx="3" ry="3" fill="#f2f8eb"/>
    </svg>
    <svg x="72" y="95" overflow="visible">
      <rect width="20" height="20" rx="3" ry="3" fill="#a6ce73"/>
    </svg>
    <svg x="95" y="95" overflow="visible">
      <rect width="20" height="20" rx="3" ry="3" fill="#a3cc6d"/>
    </svg>
  </svg>
</svg>
